 http://img88.imageshack.us/img88/8892/23779front.jpg

Country.......: USA
Genre.........: Drama, Sport
Date release..: 08.04.2011 [World]
Director......: Sean McNamara
Writers.......: Sean McNamara, Deborah Schwartz
Duration......: 106 min.
More..........: http://www.imdb.com/title/tt1596346
Trailer.......: http://www.imdb.com/video/imdb/vi1864210969
Trailer.......:

Pilot :
A teenage surfer girl summons the courage to go back into the ocean after losing an arm in a shark attack. 

Cats :
AnnaSophia Robb   	 ...  	Bethany Hamilton
Dennis Quaid 	... 	Tom Hamilton
Helen Hunt 	... 	Cheri Hamilton
Carrie Underwood 	... 	Sarah Hill
Ross Thomas 	... 	Noah Hamilton
Lorraine Nicholson 	... 	Alana Blanchard
Kevin Sorbo 	... 	Holt Blanchard
Cody Gomes 	... 	Keoki
Sonya Balmores 	... 	Malina Birch
Beau Hodge 	... 	Nationals Surf Commentator #2
Rocky Canon 	... 	Regionals Surf Commentator #1
Kaipo Guerrero 	... 	Regionals Surf Commentator #2
Dylan Slater 	... 	Turtle Bay Invitational Commentator
Chris Brochu 	... 	Timmy
Christie Brooke 	... 	Bethany Fan 

Data Technical :
!!! SAMPLE !!!
Audio.....: English
Subtitles.: Polish .srt, Polish .txt
Format                           : Matroska
File size                        : 10.9 GiB
Duration                         : 1h 46mn
Overall bit rate                 : 14.6 Mbps
Encoded date                     : UTC 2011-06-26 08:13:04
Writing application              : mkvmerge v3.2.0 ('Beginnings') Feb 12 2010 16:46:17
Writing library                  : libebml v0.7.9 + libmatroska v0.8.1
Video
ID                               : 1
Format                           : AVC
Format/Info                      : Advanced Video Codec
Format profile                   : High@L4.1
Format settings, CABAC           : Yes
Format settings, ReFrames        : 5 frames
Format settings, GOP             : M=4, N=9
Muxing mode                      : Container profile=Unknown@4.1
Codec ID                         : V_MPEG4/ISO/AVC
Duration                         : 1h 46mn
Bit rate                         : 13.1 Mbps
Width                            : 1 920 pixels
Height                           : 800 pixels
Display aspect ratio             : 2.40:1
Frame rate                       : 23.976 fps
Color space                      : YUV
Chroma subsampling               : 4:2:0
Bit depth                        : 8 bits
Scan type                        : Progressive
Bits/(Pixel*Frame)               : 0.356
Stream size                      : 9.54 GiB (88%)
Title                            : Soul.Surfer.2011
Writing library                  : x264 core 114 r1924 08d04a4
Audio
ID                               : 2
Format                           : DTS
Format/Info                      : Digital Theater Systems
Codec ID                         : A_DTS
Duration                         : 1h 46mn
Bit rate mode                    : Constant
Bit rate                         : 1 510 Kbps
Channel(s)                       : 6 channels
Channel positions                : Front: L C R, Side: L R, LFE
Sampling rate                    : 48.0 KHz
Bit depth                        : 24 bits
Stream size                      : 1.12 GiB (10%)
Title                            : dts-core 1536k

Screen : 
http://img856.imageshack.us/img856/1014/soulsurfer2011s1.png 
http://img836.imageshack.us/img836/6866/soulsurfer2011s2.png 
http://img687.imageshack.us/img687/411/soulsurfer2011s3.png 
http://img543.imageshack.us/img543/6766/soulsurfer2011s4.png 
http://img23.imageshack.us/img23/1899/soulsurfer2011s5.png